<svg xmlns="http://www.w3.org/2000/svg" viewBox="0 0 640 360" role="img" aria-label="Trade Wind Run thumbnail">
  <rect width="640" height="360" fill="#f5f0dc"/>
  <rect x="44" y="30" width="552" height="300" rx="10" fill="#0f6170"/>
  <path d="M70 100c96 38 176 26 270 0s156-30 230 4M70 170c96 38 176 26 270 0s156-30 230 4M70 240c96 38 176 26 270 0s156-30 230 4" fill="none" stroke="#f5f0dc" stroke-width="10" stroke-linecap="round" opacity=".34"/>
  <path d="M96 70h102M420 84h116M390 286h104" stroke="#9bd6d6" stroke-width="12" stroke-linecap="round" opacity=".75"/>
  <path d="M235 238l122-22" stroke="#f5f0dc" stroke-width="15" stroke-linecap="round"/>
  <rect x="294" y="205" width="28" height="30" rx="6" fill="#07191d"/>
  <path d="M310 202l34-116 86 106Z" fill="#9bd6d6" opacity=".82"/>
  <path d="M310 202l34-116 22 126Z" fill="#e7b75c" opacity=".78"/>
  <path d="M128 236l20-38 32 22-10 37Z" fill="#de694c"/>
  <circle cx="476" cy="180" r="34" fill="#f5f0dc" stroke="#e7b75c" stroke-width="8"/>
  <path d="M488 150v-38" stroke="#de694c" stroke-width="10" stroke-linecap="round"/>
  <path d="M86 314h468" stroke="#07191d" stroke-width="8" stroke-linecap="round" opacity=".55"/>
</svg>
