<?xml version="1.0" encoding="UTF-8"?>
<svg xmlns="http://www.w3.org/2000/svg" viewBox="0 0 1200 675" role="img" aria-labelledby="title desc">
  <title id="title">CONICAL FEAST</title>
  <desc id="desc">Game thumbnail for Conical Feast showing an octopus aiming a conical feast zone at prey.</desc>
  <defs>
    <linearGradient id="bg-conical-feast" x1="0" x2="1" y1="0" y2="1">
      <stop offset="0" stop-color="#9eeaff"/>
      <stop offset="1" stop-color="#fff6d8"/>
    </linearGradient>
    <pattern id="bubbles-conical-feast" width="46" height="46" patternUnits="userSpaceOnUse">
      <circle cx="9" cy="9" r="3" fill="#0476a8" opacity="0.16"/>
      <circle cx="34" cy="28" r="5" fill="#ff9f86" opacity="0.12"/>
    </pattern>
  </defs>
  <rect width="1200" height="675" rx="36" fill="url(#bg-conical-feast)"/>
  <rect width="1200" height="675" rx="36" fill="url(#bubbles-conical-feast)"/>
  <path d="M0 240 C185 180 340 284 520 224 C740 154 930 202 1200 132 L1200 675 L0 675 Z" fill="#0ea5b7"/>
  <path d="M0 430 C185 370 350 490 560 428 C785 362 945 420 1200 342 L1200 675 L0 675 Z" fill="#08708d"/>
  <circle cx="178" cy="410" r="82" fill="#061015" opacity="0.56" stroke="#ffd08a" stroke-width="8"/>
  <path d="M116 455 C142 382 170 350 210 302 M158 470 C190 402 240 366 300 326 M220 468 C250 420 286 392 340 365" fill="none" stroke="#8dffb7" stroke-width="18" stroke-linecap="round"/>
  <path d="M390 340 L884 180 A520 520 0 0 1 884 500 Z" fill="#5be7d6" opacity="0.32" stroke="#ffd08a" stroke-width="8"/>
  <path d="M336 378 C300 430 262 455 230 490 M352 392 C336 458 306 498 260 542 M388 400 C390 468 376 510 338 555 M425 392 C452 450 486 486 540 518 M450 372 C500 402 540 430 590 460" fill="none" stroke="#ffd08a" stroke-width="24" stroke-linecap="round"/>
  <circle cx="396" cy="338" r="72" fill="#ff9f86" stroke="#14213d" stroke-width="10"/>
  <ellipse cx="382" cy="334" rx="88" ry="64" fill="#ffb35f" opacity="0.42"/>
  <circle cx="420" cy="316" r="10" fill="#14213d"/>
  <circle cx="420" cy="360" r="10" fill="#14213d"/>
  <path d="M440 336 C456 348 456 360 440 372" fill="none" stroke="#fffaf0" stroke-width="6" stroke-linecap="round"/>
  <g fill="#ffd08a" stroke="#14213d" stroke-width="8">
    <ellipse cx="736" cy="300" rx="55" ry="28"/>
    <path d="M686 300 L632 267 L638 333 Z"/>
    <circle cx="764" cy="291" r="6" fill="#14213d" stroke="none"/>
  </g>
  <g fill="#ff7f6e" stroke="#14213d" stroke-width="8">
    <ellipse cx="876" cy="418" rx="72" ry="34"/>
    <path d="M811 418 L748 380 L754 458 Z"/>
    <circle cx="914" cy="407" r="7" fill="#14213d" stroke="none"/>
  </g>
  <circle cx="660" cy="218" r="18" fill="#b7f4d2" stroke="#14213d" stroke-width="6"/>
  <circle cx="972" cy="276" r="25" fill="#b7f4d2" stroke="#14213d" stroke-width="6"/>
  <path d="M452 332 C552 284 622 278 736 300 M454 360 C580 395 708 410 876 418" fill="none" stroke="#fffaf0" stroke-width="8" stroke-linecap="round" opacity="0.72"/>
  <rect x="48" y="552" width="1104" height="78" rx="24" fill="#fffaf0" stroke="#14213d" stroke-width="8"/>
  <text x="83" y="606" fill="#14213d" font-family="Arial, Helvetica, sans-serif" font-size="48" font-weight="900" letter-spacing="0">CONICAL FEAST</text>
</svg>
